<svg width="64" height="64" viewBox="0 0 64 64" fill="none" xmlns="http://www.w3.org/2000/svg">
<path d="M0 32C0 5.648 5.648 0 32 0C58.352 0 64 5.648 64 32C64 58.352 58.352 64 32 64C5.648 64 0 58.352 0 32Z" fill="#F4E0C6"/>
<path d="M16.568 12.168C18.168 12.168 23.672 12.488 28.088 12.488C31.608 12.488 34.936 12.296 38.008 12.296C44.536 12.296 48.76 16.2 48.76 21C48.76 30.152 35.832 30.664 35.832 34.888C35.832 36.168 37.176 36.68 38.84 36.872C44.088 37.32 46.2 38.792 47.224 43.72C47.672 45.896 48.568 47.624 49.848 48.584C51.512 49.672 51.96 50.376 51.96 51.336C51.96 52.744 50.36 53.32 46.712 53.32C37.944 53.32 35.384 49.736 35.256 43.08C35.192 39.368 33.592 37.448 29.048 37.32C27.768 37.256 27 36.424 27 35.464C27 34.44 27.512 33.864 28.728 33.608C35.384 32.264 37.56 27.72 37.56 23.176C37.56 18.12 35.576 16.584 32.312 16.584C26.424 16.584 22.392 23.624 22.392 33.416C22.392 43.72 31.416 47.56 31.416 51.592C31.416 52.68 30.968 53.192 29.624 53.192C28.92 53.192 25.528 52.872 22.776 52.872C19.704 52.872 15.864 53.064 13.88 53.064C12.984 53.064 12.344 52.296 12.344 51.144C12.344 48.328 19.192 42.056 19.192 33.352C19.192 20.936 14.648 16.328 14.648 14.088C14.648 12.744 15.352 12.168 16.568 12.168Z" fill="#36241C"/>
</svg>
